<svg xmlns="http://www.w3.org/2000/svg" viewBox="0 0 720 128" width="720" height="128">
  <defs>
    <linearGradient id="goldGrad" x1="0%" y1="0%" x2="100%" y2="100%">
      <stop offset="0%" stop-color="#f0c934"/>
      <stop offset="50%" stop-color="#ffd95a"/>
      <stop offset="100%" stop-color="#d9a61f"/>
    </linearGradient>
    <filter id="softGlow" x="-20%" y="-20%" width="140%" height="140%">
      <feGaussianBlur stdDeviation="8"/>
    </filter>
  </defs>

  <g transform="translate(16, 16)">
    <rect x="0" y="0" width="96" height="96" rx="28" fill="#f7efe1"/>
    <ellipse cx="48" cy="48" rx="34" ry="34" fill="#fff9ef" opacity="0.96"/>
    <ellipse cx="48" cy="48" rx="29" ry="29" fill="#ffffff" opacity="0.42" filter="url(#softGlow)"/>
    <path d="M63 18
             C74 24 82 37 82 51
             C82 71 66 87 46 87
             C34 87 24 82 17 74
             C22 76 28 77 34 77
             C55 77 71 60 71 39
             C71 31 68 24 63 18 Z"
          fill="url(#goldGrad)"/>
    <g fill="#1554c1" font-family="'Georgia',serif" font-style="italic" font-weight="700">
      <text x="38" y="68" font-size="22" transform="rotate(-11 38 68)">z</text>
      <text x="49" y="56" font-size="28" transform="rotate(-10 49 56)">z</text>
      <text x="61" y="43" font-size="34" transform="rotate(-9 61 43)">z</text>
    </g>
  </g>

  <text x="136" y="86"
        font-family="'Cormorant Garamond','Georgia',serif"
        font-size="64"
        font-weight="500"
        letter-spacing="-0.6"
        fill="#17121d">SleeePal<tspan font-size="42">.com</tspan></text>
</svg>
